<svg xmlns="http://www.w3.org/2000/svg" viewBox="0 0 128 128">

  <rect width="128" height="128" rx="20" fill="#F1EADB"/>

  <path d="M 88 0 L 128 0 L 128 40 Z" fill="#14F195"/>

  <path d="M 28 32 L 22 32 L 22 96 L 28 96" fill="none" stroke="#0F1A14" stroke-width="8" stroke-linecap="square" stroke-linejoin="miter"/>

  <path d="M 100 32 L 106 32 L 106 96 L 100 96" fill="none" stroke="#0F1A14" stroke-width="8" stroke-linecap="square" stroke-linejoin="miter"/>

  <path d="M 78 44
           C 78 38, 73 34, 64 34
           C 55 34, 50 38, 50 46
           C 50 52, 54 55, 64 58
           C 76 61, 80 65, 80 73
           C 80 82, 73 88, 64 88
           C 55 88, 50 84, 50 78" fill="none" stroke="#0F1A14" stroke-width="9" stroke-linecap="square" stroke-linejoin="miter"/>
</svg>
